<svg xmlns="http://www.w3.org/2000/svg" width="1200" height="430" viewBox="0 0 1200 430">
<defs>
  <linearGradient id="area" x1="0" x2="0" y1="0" y2="1">
    <stop offset="0%" stop-color="#58a6ff" stop-opacity="0.28"/>
    <stop offset="100%" stop-color="#58a6ff" stop-opacity="0.02"/>
  </linearGradient>
</defs>

<rect width="100%" height="100%" rx="18" fill="#0d1117"/>

<text x="48" y="48" fill="#f0f6fc" font-family="Arial, sans-serif" font-size="27" font-weight="700">Download growth, last 7 days</text>
<text x="48" y="79" fill="#8b949e" font-family="Arial, sans-serif" font-size="16">HakanSeven12/OpenCADStudio cumulative GitHub Release asset downloads</text>

<text x="1152" y="46" text-anchor="end" fill="#f0f6fc" font-family="Arial, sans-serif" font-size="25" font-weight="700">70.2k</text>
<text x="1152" y="76" text-anchor="end" fill="#3fb950" font-family="Arial, sans-serif" font-size="17" font-weight="700">+10.9k growth</text>

<line x1="86" y1="112.00" x2="1166" y2="112.00" stroke="#30363d" stroke-width="1"/><line x1="86" y1="177.00" x2="1166" y2="177.00" stroke="#30363d" stroke-width="1"/><line x1="86" y1="242.00" x2="1166" y2="242.00" stroke="#30363d" stroke-width="1"/><line x1="86" y1="307.00" x2="1166" y2="307.00" stroke="#30363d" stroke-width="1"/><line x1="86" y1="372.00" x2="1166" y2="372.00" stroke="#30363d" stroke-width="1"/>
<text x="72" y="117.00" text-anchor="end" fill="#8b949e" font-family="Arial, sans-serif" font-size="14">71,384</text><text x="72" y="182.00" text-anchor="end" fill="#8b949e" font-family="Arial, sans-serif" font-size="14">68,216</text><text x="72" y="247.00" text-anchor="end" fill="#8b949e" font-family="Arial, sans-serif" font-size="14">65,049</text><text x="72" y="312.00" text-anchor="end" fill="#8b949e" font-family="Arial, sans-serif" font-size="14">61,882</text><text x="72" y="377.00" text-anchor="end" fill="#8b949e" font-family="Arial, sans-serif" font-size="14">58,714</text>

<path d="M 86.00 346.84 L 131.64 331.33 L 159.45 325.83 L 195.95 318.69 L 234.10 310.15 L 269.31 300.48 L 297.77 294.18 L 319.05 290.27 L 354.20 283.94 L 392.17 277.03 L 427.21 268.88 L 455.86 262.79 L 477.43 259.94 L 516.19 254.31 L 564.20 244.67 L 598.90 236.27 L 625.50 231.33 L 645.63 219.18 L 687.20 213.72 L 729.56 206.29 L 761.08 199.75 L 784.57 196.53 L 802.89 194.39 L 841.90 191.37 L 875.95 187.43 L 902.85 181.77 L 920.15 178.75 L 937.32 176.37 L 959.67 172.87 L 996.58 169.91 L 1035.54 165.19 L 1063.95 160.63 L 1082.13 157.19 L 1102.02 152.18 L 1120.46 148.14 L 1166.00 137.16 L 1166.00 372.00 L 86.00 372.00 Z" fill="url(#area)"/>
<path d="M 86.00 346.84 L 131.64 331.33 L 159.45 325.83 L 195.95 318.69 L 234.10 310.15 L 269.31 300.48 L 297.77 294.18 L 319.05 290.27 L 354.20 283.94 L 392.17 277.03 L 427.21 268.88 L 455.86 262.79 L 477.43 259.94 L 516.19 254.31 L 564.20 244.67 L 598.90 236.27 L 625.50 231.33 L 645.63 219.18 L 687.20 213.72 L 729.56 206.29 L 761.08 199.75 L 784.57 196.53 L 802.89 194.39 L 841.90 191.37 L 875.95 187.43 L 902.85 181.77 L 920.15 178.75 L 937.32 176.37 L 959.67 172.87 L 996.58 169.91 L 1035.54 165.19 L 1063.95 160.63 L 1082.13 157.19 L 1102.02 152.18 L 1120.46 148.14 L 1166.00 137.16" fill="none" stroke="#58a6ff" stroke-width="4" stroke-linecap="round" stroke-linejoin="round"/>
<circle cx="1166.00" cy="137.16" r="6" fill="#58a6ff"/>
<circle cx="1166.00" cy="137.16" r="11" fill="none" stroke="#58a6ff" stroke-opacity="0.28" stroke-width="5"/>

<text x="86.00" y="408" text-anchor="start" fill="#8b949e" font-family="Arial, sans-serif" font-size="14">28 Sep 15:10</text><text x="626.00" y="408" text-anchor="middle" fill="#8b949e" font-family="Arial, sans-serif" font-size="14">02 Oct 01:11</text><text x="1166.00" y="408" text-anchor="end" fill="#8b949e" font-family="Arial, sans-serif" font-size="14">05 Oct 11:11</text>
</svg>
