<svg xmlns="http://www.w3.org/2000/svg" width="1200" height="430" viewBox="0 0 1200 430">
<defs>
  <linearGradient id="area" x1="0" x2="0" y1="0" y2="1">
    <stop offset="0%" stop-color="#58a6ff" stop-opacity="0.28"/>
    <stop offset="100%" stop-color="#58a6ff" stop-opacity="0.02"/>
  </linearGradient>
</defs>

<rect width="100%" height="100%" rx="18" fill="#0d1117"/>

<text x="48" y="48" fill="#f0f6fc" font-family="Arial, sans-serif" font-size="27" font-weight="700">Download growth, last 30 days</text>
<text x="48" y="79" fill="#8b949e" font-family="Arial, sans-serif" font-size="16">HakanSeven12/OpenCADStudio cumulative GitHub Release asset downloads</text>

<text x="1152" y="46" text-anchor="end" fill="#f0f6fc" font-family="Arial, sans-serif" font-size="25" font-weight="700">44.2k</text>
<text x="1152" y="76" text-anchor="end" fill="#3fb950" font-family="Arial, sans-serif" font-size="17" font-weight="700">+16.8k growth</text>

<line x1="86" y1="112.00" x2="1166" y2="112.00" stroke="#30363d" stroke-width="1"/><line x1="86" y1="177.00" x2="1166" y2="177.00" stroke="#30363d" stroke-width="1"/><line x1="86" y1="242.00" x2="1166" y2="242.00" stroke="#30363d" stroke-width="1"/><line x1="86" y1="307.00" x2="1166" y2="307.00" stroke="#30363d" stroke-width="1"/><line x1="86" y1="372.00" x2="1166" y2="372.00" stroke="#30363d" stroke-width="1"/>
<text x="72" y="117.00" text-anchor="end" fill="#8b949e" font-family="Arial, sans-serif" font-size="14">46,214</text><text x="72" y="182.00" text-anchor="end" fill="#8b949e" font-family="Arial, sans-serif" font-size="14">41,005</text><text x="72" y="247.00" text-anchor="end" fill="#8b949e" font-family="Arial, sans-serif" font-size="14">35,796</text><text x="72" y="312.00" text-anchor="end" fill="#8b949e" font-family="Arial, sans-serif" font-size="14">30,588</text><text x="72" y="377.00" text-anchor="end" fill="#8b949e" font-family="Arial, sans-serif" font-size="14">25,379</text>

<path d="M 86.00 346.84 L 113.60 341.49 L 137.85 335.60 L 153.39 331.39 L 167.47 327.96 L 177.55 325.83 L 188.27 323.13 L 216.11 316.79 L 245.67 310.69 L 267.92 304.70 L 286.87 299.16 L 302.87 295.84 L 315.33 293.77 L 326.50 292.28 L 353.15 289.46 L 375.79 286.96 L 396.13 282.71 L 414.41 278.30 L 427.07 275.29 L 440.60 272.41 L 451.37 270.18 L 461.00 268.39 L 487.90 264.42 L 516.84 260.49 L 540.48 256.72 L 559.98 253.04 L 572.80 248.47 L 584.77 245.55 L 595.53 243.35 L 606.83 241.41 L 637.14 235.35 L 675.96 224.25 L 707.13 212.22 L 726.64 206.83 L 740.80 204.28 L 768.02 199.90 L 796.28 194.45 L 824.33 187.92 L 846.05 183.26 L 863.90 179.60 L 875.40 177.85 L 886.89 176.44 L 916.30 172.91 L 947.60 167.57 L 974.83 162.02 L 991.69 159.50 L 1006.80 157.76 L 1020.25 156.06 L 1047.69 152.89 L 1075.65 149.10 L 1103.47 144.76 L 1126.05 141.29 L 1143.30 139.02 L 1154.58 137.98 L 1166.00 137.16 L 1166.00 372.00 L 86.00 372.00 Z" fill="url(#area)"/>
<path d="M 86.00 346.84 L 113.60 341.49 L 137.85 335.60 L 153.39 331.39 L 167.47 327.96 L 177.55 325.83 L 188.27 323.13 L 216.11 316.79 L 245.67 310.69 L 267.92 304.70 L 286.87 299.16 L 302.87 295.84 L 315.33 293.77 L 326.50 292.28 L 353.15 289.46 L 375.79 286.96 L 396.13 282.71 L 414.41 278.30 L 427.07 275.29 L 440.60 272.41 L 451.37 270.18 L 461.00 268.39 L 487.90 264.42 L 516.84 260.49 L 540.48 256.72 L 559.98 253.04 L 572.80 248.47 L 584.77 245.55 L 595.53 243.35 L 606.83 241.41 L 637.14 235.35 L 675.96 224.25 L 707.13 212.22 L 726.64 206.83 L 740.80 204.28 L 768.02 199.90 L 796.28 194.45 L 824.33 187.92 L 846.05 183.26 L 863.90 179.60 L 875.40 177.85 L 886.89 176.44 L 916.30 172.91 L 947.60 167.57 L 974.83 162.02 L 991.69 159.50 L 1006.80 157.76 L 1020.25 156.06 L 1047.69 152.89 L 1075.65 149.10 L 1103.47 144.76 L 1126.05 141.29 L 1143.30 139.02 L 1154.58 137.98 L 1166.00 137.16" fill="none" stroke="#58a6ff" stroke-width="4" stroke-linecap="round" stroke-linejoin="round"/>
<circle cx="1166.00" cy="137.16" r="6" fill="#58a6ff"/>
<circle cx="1166.00" cy="137.16" r="11" fill="none" stroke="#58a6ff" stroke-opacity="0.28" stroke-width="5"/>

<text x="86.00" y="408" text-anchor="start" fill="#8b949e" font-family="Arial, sans-serif" font-size="14">10 Sep 09:36</text><text x="626.00" y="408" text-anchor="middle" fill="#8b949e" font-family="Arial, sans-serif" font-size="14">14 Sep 06:43</text><text x="1166.00" y="408" text-anchor="end" fill="#8b949e" font-family="Arial, sans-serif" font-size="14">18 Sep 03:51</text>
</svg>
