<svg xmlns="http://www.w3.org/2000/svg" width="1200" height="430" viewBox="0 0 1200 430">
<defs>
  <linearGradient id="area" x1="0" x2="0" y1="0" y2="1">
    <stop offset="0%" stop-color="#58a6ff" stop-opacity="0.28"/>
    <stop offset="100%" stop-color="#58a6ff" stop-opacity="0.02"/>
  </linearGradient>
</defs>

<rect width="100%" height="100%" rx="18" fill="#0d1117"/>

<text x="48" y="48" fill="#f0f6fc" font-family="Arial, sans-serif" font-size="27" font-weight="700">Download growth, last 30 days</text>
<text x="48" y="79" fill="#8b949e" font-family="Arial, sans-serif" font-size="16">HakanSeven12/OpenCADStudio cumulative GitHub Release asset downloads</text>

<text x="1152" y="46" text-anchor="end" fill="#f0f6fc" font-family="Arial, sans-serif" font-size="25" font-weight="700">64.9k</text>
<text x="1152" y="76" text-anchor="end" fill="#3fb950" font-family="Arial, sans-serif" font-size="17" font-weight="700">+37.5k growth</text>

<line x1="86" y1="112.00" x2="1166" y2="112.00" stroke="#30363d" stroke-width="1"/><line x1="86" y1="177.00" x2="1166" y2="177.00" stroke="#30363d" stroke-width="1"/><line x1="86" y1="242.00" x2="1166" y2="242.00" stroke="#30363d" stroke-width="1"/><line x1="86" y1="307.00" x2="1166" y2="307.00" stroke="#30363d" stroke-width="1"/><line x1="86" y1="372.00" x2="1166" y2="372.00" stroke="#30363d" stroke-width="1"/>
<text x="72" y="117.00" text-anchor="end" fill="#8b949e" font-family="Arial, sans-serif" font-size="14">69,421</text><text x="72" y="182.00" text-anchor="end" fill="#8b949e" font-family="Arial, sans-serif" font-size="14">57,789</text><text x="72" y="247.00" text-anchor="end" fill="#8b949e" font-family="Arial, sans-serif" font-size="14">46,157</text><text x="72" y="312.00" text-anchor="end" fill="#8b949e" font-family="Arial, sans-serif" font-size="14">34,525</text><text x="72" y="377.00" text-anchor="end" fill="#8b949e" font-family="Arial, sans-serif" font-size="14">22,893</text>

<path d="M 86.00 346.84 L 96.08 344.45 L 104.93 341.81 L 110.60 339.92 L 115.74 338.39 L 119.42 337.43 L 123.33 336.23 L 133.50 333.39 L 144.29 330.65 L 152.41 327.97 L 159.33 325.49 L 165.17 324.00 L 169.72 323.08 L 173.80 322.41 L 183.52 321.15 L 191.79 320.03 L 199.22 318.13 L 205.89 316.15 L 210.51 314.80 L 215.45 313.51 L 219.38 312.52 L 222.89 311.71 L 232.72 309.93 L 243.28 308.17 L 251.91 306.49 L 259.03 304.84 L 263.71 302.79 L 268.08 301.48 L 272.01 300.50 L 276.13 299.63 L 287.20 296.92 L 301.37 291.95 L 312.75 286.56 L 319.87 284.14 L 325.04 283.00 L 334.97 281.04 L 345.29 278.60 L 355.53 275.68 L 363.46 273.59 L 369.98 271.95 L 374.17 271.17 L 378.37 270.54 L 389.11 268.96 L 400.53 266.56 L 410.47 264.08 L 416.63 262.95 L 422.14 262.17 L 427.05 261.41 L 437.07 259.99 L 447.27 258.29 L 457.43 256.35 L 465.68 254.80 L 471.97 253.78 L 476.09 253.32 L 480.26 252.95 L 490.56 252.08 L 501.43 250.37 L 508.56 248.87 L 515.49 247.59 L 521.15 246.60 L 525.61 246.06 L 529.78 245.61 L 539.71 244.58 L 548.87 243.62 L 556.65 242.77 L 563.11 241.60 L 567.88 240.88 L 572.60 240.18 L 576.62 239.93 L 580.73 239.39 L 591.53 238.36 L 602.63 237.04 L 609.39 235.93 L 615.48 234.52 L 619.82 233.14 L 624.30 231.92 L 628.14 231.21 L 632.34 230.30 L 643.98 227.93 L 658.67 223.54 L 669.76 220.30 L 676.70 218.82 L 681.99 217.86 L 692.63 216.02 L 704.08 212.60 L 712.70 210.28 L 720.10 208.65 L 726.30 207.67 L 731.18 206.84 L 740.79 205.52 L 750.88 203.91 L 760.93 201.97 L 769.54 200.02 L 776.30 198.64 L 781.11 198.03 L 789.20 196.81 L 799.74 195.29 L 810.43 193.76 L 819.25 192.12 L 826.43 190.93 L 831.79 190.27 L 838.21 189.57 L 850.05 188.43 L 861.86 187.01 L 871.20 185.16 L 878.07 184.10 L 883.14 183.48 L 893.19 182.68 L 903.22 181.87 L 912.15 180.62 L 919.69 179.43 L 925.20 178.69 L 930.76 177.99 L 935.45 177.61 L 946.07 176.67 L 957.02 175.70 L 966.64 174.45 L 974.31 172.78 L 980.67 171.33 L 986.12 170.26 L 997.01 168.58 L 1012.28 164.98 L 1026.95 160.76 L 1035.89 159.26 L 1047.62 157.31 L 1059.88 154.99 L 1071.20 152.36 L 1080.35 150.64 L 1087.19 149.57 L 1098.49 147.85 L 1110.70 145.97 L 1121.96 143.75 L 1131.17 142.09 L 1138.11 141.31 L 1150.57 139.78 L 1166.00 137.16 L 1166.00 372.00 L 86.00 372.00 Z" fill="url(#area)"/>
<path d="M 86.00 346.84 L 96.08 344.45 L 104.93 341.81 L 110.60 339.92 L 115.74 338.39 L 119.42 337.43 L 123.33 336.23 L 133.50 333.39 L 144.29 330.65 L 152.41 327.97 L 159.33 325.49 L 165.17 324.00 L 169.72 323.08 L 173.80 322.41 L 183.52 321.15 L 191.79 320.03 L 199.22 318.13 L 205.89 316.15 L 210.51 314.80 L 215.45 313.51 L 219.38 312.52 L 222.89 311.71 L 232.72 309.93 L 243.28 308.17 L 251.91 306.49 L 259.03 304.84 L 263.71 302.79 L 268.08 301.48 L 272.01 300.50 L 276.13 299.63 L 287.20 296.92 L 301.37 291.95 L 312.75 286.56 L 319.87 284.14 L 325.04 283.00 L 334.97 281.04 L 345.29 278.60 L 355.53 275.68 L 363.46 273.59 L 369.98 271.95 L 374.17 271.17 L 378.37 270.54 L 389.11 268.96 L 400.53 266.56 L 410.47 264.08 L 416.63 262.95 L 422.14 262.17 L 427.05 261.41 L 437.07 259.99 L 447.27 258.29 L 457.43 256.35 L 465.68 254.80 L 471.97 253.78 L 476.09 253.32 L 480.26 252.95 L 490.56 252.08 L 501.43 250.37 L 508.56 248.87 L 515.49 247.59 L 521.15 246.60 L 525.61 246.06 L 529.78 245.61 L 539.71 244.58 L 548.87 243.62 L 556.65 242.77 L 563.11 241.60 L 567.88 240.88 L 572.60 240.18 L 576.62 239.93 L 580.73 239.39 L 591.53 238.36 L 602.63 237.04 L 609.39 235.93 L 615.48 234.52 L 619.82 233.14 L 624.30 231.92 L 628.14 231.21 L 632.34 230.30 L 643.98 227.93 L 658.67 223.54 L 669.76 220.30 L 676.70 218.82 L 681.99 217.86 L 692.63 216.02 L 704.08 212.60 L 712.70 210.28 L 720.10 208.65 L 726.30 207.67 L 731.18 206.84 L 740.79 205.52 L 750.88 203.91 L 760.93 201.97 L 769.54 200.02 L 776.30 198.64 L 781.11 198.03 L 789.20 196.81 L 799.74 195.29 L 810.43 193.76 L 819.25 192.12 L 826.43 190.93 L 831.79 190.27 L 838.21 189.57 L 850.05 188.43 L 861.86 187.01 L 871.20 185.16 L 878.07 184.10 L 883.14 183.48 L 893.19 182.68 L 903.22 181.87 L 912.15 180.62 L 919.69 179.43 L 925.20 178.69 L 930.76 177.99 L 935.45 177.61 L 946.07 176.67 L 957.02 175.70 L 966.64 174.45 L 974.31 172.78 L 980.67 171.33 L 986.12 170.26 L 997.01 168.58 L 1012.28 164.98 L 1026.95 160.76 L 1035.89 159.26 L 1047.62 157.31 L 1059.88 154.99 L 1071.20 152.36 L 1080.35 150.64 L 1087.19 149.57 L 1098.49 147.85 L 1110.70 145.97 L 1121.96 143.75 L 1131.17 142.09 L 1138.11 141.31 L 1150.57 139.78 L 1166.00 137.16" fill="none" stroke="#58a6ff" stroke-width="4" stroke-linecap="round" stroke-linejoin="round"/>
<circle cx="1166.00" cy="137.16" r="6" fill="#58a6ff"/>
<circle cx="1166.00" cy="137.16" r="11" fill="none" stroke="#58a6ff" stroke-opacity="0.28" stroke-width="5"/>

<text x="86.00" y="408" text-anchor="start" fill="#8b949e" font-family="Arial, sans-serif" font-size="14">10 Sep 09:36</text><text x="626.00" y="408" text-anchor="middle" fill="#8b949e" font-family="Arial, sans-serif" font-size="14">21 Sep 00:42</text><text x="1166.00" y="408" text-anchor="end" fill="#8b949e" font-family="Arial, sans-serif" font-size="14">01 Oct 15:48</text>
</svg>
