<svg xmlns="http://www.w3.org/2000/svg" width="1200" height="430" viewBox="0 0 1200 430">
<defs>
  <linearGradient id="area" x1="0" x2="0" y1="0" y2="1">
    <stop offset="0%" stop-color="#58a6ff" stop-opacity="0.28"/>
    <stop offset="100%" stop-color="#58a6ff" stop-opacity="0.02"/>
  </linearGradient>
</defs>

<rect width="100%" height="100%" rx="18" fill="#0d1117"/>

<text x="48" y="48" fill="#f0f6fc" font-family="Arial, sans-serif" font-size="27" font-weight="700">Download growth, last 30 days</text>
<text x="48" y="79" fill="#8b949e" font-family="Arial, sans-serif" font-size="16">HakanSeven12/OpenCADStudio cumulative GitHub Release asset downloads</text>

<text x="1152" y="46" text-anchor="end" fill="#f0f6fc" font-family="Arial, sans-serif" font-size="25" font-weight="700">55.3k</text>
<text x="1152" y="76" text-anchor="end" fill="#3fb950" font-family="Arial, sans-serif" font-size="17" font-weight="700">+27.9k growth</text>

<line x1="86" y1="112.00" x2="1166" y2="112.00" stroke="#30363d" stroke-width="1"/><line x1="86" y1="177.00" x2="1166" y2="177.00" stroke="#30363d" stroke-width="1"/><line x1="86" y1="242.00" x2="1166" y2="242.00" stroke="#30363d" stroke-width="1"/><line x1="86" y1="307.00" x2="1166" y2="307.00" stroke="#30363d" stroke-width="1"/><line x1="86" y1="372.00" x2="1166" y2="372.00" stroke="#30363d" stroke-width="1"/>
<text x="72" y="117.00" text-anchor="end" fill="#8b949e" font-family="Arial, sans-serif" font-size="14">58,644</text><text x="72" y="182.00" text-anchor="end" fill="#8b949e" font-family="Arial, sans-serif" font-size="14">49,995</text><text x="72" y="247.00" text-anchor="end" fill="#8b949e" font-family="Arial, sans-serif" font-size="14">41,346</text><text x="72" y="312.00" text-anchor="end" fill="#8b949e" font-family="Arial, sans-serif" font-size="14">32,696</text><text x="72" y="377.00" text-anchor="end" fill="#8b949e" font-family="Arial, sans-serif" font-size="14">24,047</text>

<path d="M 86.00 346.84 L 100.70 343.62 L 113.61 340.07 L 121.88 337.54 L 129.38 335.47 L 134.75 334.18 L 140.46 332.56 L 155.28 328.74 L 171.02 325.07 L 182.87 321.46 L 192.96 318.12 L 201.48 316.13 L 208.11 314.88 L 214.06 313.98 L 228.25 312.28 L 240.30 310.77 L 251.14 308.22 L 260.87 305.56 L 267.61 303.75 L 274.81 302.01 L 280.55 300.67 L 285.68 299.59 L 300.00 297.20 L 315.41 294.83 L 328.00 292.57 L 338.38 290.35 L 345.21 287.60 L 351.58 285.84 L 357.31 284.52 L 363.33 283.34 L 379.47 279.70 L 400.14 273.01 L 416.74 265.77 L 427.12 262.52 L 434.66 260.99 L 449.16 258.35 L 464.20 255.07 L 479.14 251.13 L 490.71 248.32 L 500.21 246.12 L 506.33 245.07 L 512.45 244.22 L 528.11 242.09 L 544.78 238.88 L 559.28 235.53 L 568.26 234.02 L 576.30 232.97 L 583.46 231.95 L 598.07 230.04 L 612.96 227.76 L 627.77 225.14 L 639.80 223.05 L 648.98 221.68 L 654.99 221.06 L 661.07 220.56 L 676.10 219.39 L 691.95 217.09 L 702.35 215.08 L 712.46 213.36 L 720.72 212.03 L 727.22 211.30 L 733.30 210.70 L 747.79 209.31 L 761.15 208.02 L 772.49 206.87 L 781.92 205.31 L 788.87 204.33 L 795.75 203.39 L 801.62 203.05 L 807.61 202.33 L 823.37 200.95 L 839.57 199.17 L 849.42 197.67 L 858.31 195.78 L 864.63 193.92 L 871.17 192.28 L 876.77 191.33 L 882.89 190.11 L 899.88 186.93 L 921.31 181.02 L 937.49 176.66 L 947.60 174.66 L 955.32 173.38 L 970.84 170.90 L 987.54 166.30 L 1000.11 163.18 L 1010.90 160.98 L 1019.95 159.67 L 1027.06 158.56 L 1041.08 156.78 L 1055.80 154.62 L 1070.46 152.00 L 1083.02 149.39 L 1092.87 147.52 L 1099.89 146.71 L 1111.70 145.07 L 1127.07 143.02 L 1142.66 140.97 L 1155.53 138.75 L 1166.00 137.16 L 1166.00 372.00 L 86.00 372.00 Z" fill="url(#area)"/>
<path d="M 86.00 346.84 L 100.70 343.62 L 113.61 340.07 L 121.88 337.54 L 129.38 335.47 L 134.75 334.18 L 140.46 332.56 L 155.28 328.74 L 171.02 325.07 L 182.87 321.46 L 192.96 318.12 L 201.48 316.13 L 208.11 314.88 L 214.06 313.98 L 228.25 312.28 L 240.30 310.77 L 251.14 308.22 L 260.87 305.56 L 267.61 303.75 L 274.81 302.01 L 280.55 300.67 L 285.68 299.59 L 300.00 297.20 L 315.41 294.83 L 328.00 292.57 L 338.38 290.35 L 345.21 287.60 L 351.58 285.84 L 357.31 284.52 L 363.33 283.34 L 379.47 279.70 L 400.14 273.01 L 416.74 265.77 L 427.12 262.52 L 434.66 260.99 L 449.16 258.35 L 464.20 255.07 L 479.14 251.13 L 490.71 248.32 L 500.21 246.12 L 506.33 245.07 L 512.45 244.22 L 528.11 242.09 L 544.78 238.88 L 559.28 235.53 L 568.26 234.02 L 576.30 232.97 L 583.46 231.95 L 598.07 230.04 L 612.96 227.76 L 627.77 225.14 L 639.80 223.05 L 648.98 221.68 L 654.99 221.06 L 661.07 220.56 L 676.10 219.39 L 691.95 217.09 L 702.35 215.08 L 712.46 213.36 L 720.72 212.03 L 727.22 211.30 L 733.30 210.70 L 747.79 209.31 L 761.15 208.02 L 772.49 206.87 L 781.92 205.31 L 788.87 204.33 L 795.75 203.39 L 801.62 203.05 L 807.61 202.33 L 823.37 200.95 L 839.57 199.17 L 849.42 197.67 L 858.31 195.78 L 864.63 193.92 L 871.17 192.28 L 876.77 191.33 L 882.89 190.11 L 899.88 186.93 L 921.31 181.02 L 937.49 176.66 L 947.60 174.66 L 955.32 173.38 L 970.84 170.90 L 987.54 166.30 L 1000.11 163.18 L 1010.90 160.98 L 1019.95 159.67 L 1027.06 158.56 L 1041.08 156.78 L 1055.80 154.62 L 1070.46 152.00 L 1083.02 149.39 L 1092.87 147.52 L 1099.89 146.71 L 1111.70 145.07 L 1127.07 143.02 L 1142.66 140.97 L 1155.53 138.75 L 1166.00 137.16" fill="none" stroke="#58a6ff" stroke-width="4" stroke-linecap="round" stroke-linejoin="round"/>
<circle cx="1166.00" cy="137.16" r="6" fill="#58a6ff"/>
<circle cx="1166.00" cy="137.16" r="11" fill="none" stroke="#58a6ff" stroke-opacity="0.28" stroke-width="5"/>

<text x="86.00" y="408" text-anchor="start" fill="#8b949e" font-family="Arial, sans-serif" font-size="14">10 Sep 09:36</text><text x="626.00" y="408" text-anchor="middle" fill="#8b949e" font-family="Arial, sans-serif" font-size="14">17 Sep 16:29</text><text x="1166.00" y="408" text-anchor="end" fill="#8b949e" font-family="Arial, sans-serif" font-size="14">24 Sep 23:23</text>
</svg>
