<svg xmlns="http://www.w3.org/2000/svg" width="1200" height="430" viewBox="0 0 1200 430">
<defs>
  <linearGradient id="area" x1="0" x2="0" y1="0" y2="1">
    <stop offset="0%" stop-color="#58a6ff" stop-opacity="0.28"/>
    <stop offset="100%" stop-color="#58a6ff" stop-opacity="0.02"/>
  </linearGradient>
</defs>

<rect width="100%" height="100%" rx="18" fill="#0d1117"/>

<text x="48" y="48" fill="#f0f6fc" font-family="Arial, sans-serif" font-size="27" font-weight="700">Download growth, last 30 days</text>
<text x="48" y="79" fill="#8b949e" font-family="Arial, sans-serif" font-size="16">HakanSeven12/OpenCADStudio cumulative GitHub Release asset downloads</text>

<text x="1152" y="46" text-anchor="end" fill="#f0f6fc" font-family="Arial, sans-serif" font-size="25" font-weight="700">56.8k</text>
<text x="1152" y="76" text-anchor="end" fill="#3fb950" font-family="Arial, sans-serif" font-size="17" font-weight="700">+29.4k growth</text>

<line x1="86" y1="112.00" x2="1166" y2="112.00" stroke="#30363d" stroke-width="1"/><line x1="86" y1="177.00" x2="1166" y2="177.00" stroke="#30363d" stroke-width="1"/><line x1="86" y1="242.00" x2="1166" y2="242.00" stroke="#30363d" stroke-width="1"/><line x1="86" y1="307.00" x2="1166" y2="307.00" stroke="#30363d" stroke-width="1"/><line x1="86" y1="372.00" x2="1166" y2="372.00" stroke="#30363d" stroke-width="1"/>
<text x="72" y="117.00" text-anchor="end" fill="#8b949e" font-family="Arial, sans-serif" font-size="14">60,298</text><text x="72" y="182.00" text-anchor="end" fill="#8b949e" font-family="Arial, sans-serif" font-size="14">51,191</text><text x="72" y="247.00" text-anchor="end" fill="#8b949e" font-family="Arial, sans-serif" font-size="14">42,084</text><text x="72" y="312.00" text-anchor="end" fill="#8b949e" font-family="Arial, sans-serif" font-size="14">32,977</text><text x="72" y="377.00" text-anchor="end" fill="#8b949e" font-family="Arial, sans-serif" font-size="14">23,870</text>

<path d="M 86.00 346.84 L 99.48 343.78 L 111.32 340.41 L 118.91 338.00 L 125.79 336.04 L 130.72 334.82 L 135.95 333.28 L 149.55 329.65 L 163.99 326.16 L 174.86 322.74 L 184.11 319.57 L 191.93 317.67 L 198.01 316.49 L 203.47 315.64 L 216.48 314.02 L 227.54 312.59 L 237.48 310.16 L 246.41 307.64 L 252.59 305.92 L 259.20 304.27 L 264.46 303.00 L 269.16 301.97 L 282.30 299.70 L 296.44 297.45 L 307.99 295.29 L 317.51 293.19 L 323.77 290.58 L 329.62 288.91 L 334.87 287.65 L 340.39 286.54 L 355.20 283.08 L 374.16 276.72 L 389.38 269.84 L 398.91 266.76 L 405.83 265.30 L 419.12 262.80 L 432.92 259.68 L 446.63 255.95 L 457.24 253.28 L 465.96 251.19 L 471.57 250.19 L 477.19 249.38 L 491.55 247.36 L 506.84 244.31 L 520.14 241.13 L 528.37 239.69 L 535.75 238.70 L 542.32 237.72 L 555.72 235.91 L 569.38 233.74 L 582.97 231.26 L 594.00 229.27 L 602.42 227.98 L 607.93 227.38 L 613.51 226.91 L 627.30 225.80 L 641.84 223.61 L 651.38 221.70 L 660.65 220.07 L 668.23 218.80 L 674.19 218.12 L 679.77 217.54 L 693.06 216.22 L 705.31 215.00 L 715.72 213.91 L 724.36 212.42 L 730.74 211.49 L 737.06 210.60 L 742.43 210.28 L 747.93 209.60 L 762.39 208.28 L 777.25 206.59 L 786.29 205.17 L 794.44 203.37 L 800.24 201.61 L 806.24 200.05 L 811.37 199.15 L 816.99 197.99 L 832.57 194.96 L 852.22 189.35 L 867.07 185.22 L 876.34 183.32 L 883.42 182.10 L 897.66 179.75 L 912.98 175.37 L 924.51 172.41 L 934.41 170.33 L 942.71 169.08 L 949.24 168.02 L 962.09 166.34 L 975.60 164.28 L 989.04 161.80 L 1000.56 159.31 L 1009.60 157.54 L 1016.04 156.77 L 1026.87 155.21 L 1040.97 153.27 L 1055.27 151.32 L 1067.08 149.21 L 1076.68 147.70 L 1083.86 146.85 L 1092.44 145.97 L 1108.29 144.50 L 1124.08 142.69 L 1136.58 140.34 L 1145.78 138.98 L 1152.56 138.19 L 1166.00 137.16 L 1166.00 372.00 L 86.00 372.00 Z" fill="url(#area)"/>
<path d="M 86.00 346.84 L 99.48 343.78 L 111.32 340.41 L 118.91 338.00 L 125.79 336.04 L 130.72 334.82 L 135.95 333.28 L 149.55 329.65 L 163.99 326.16 L 174.86 322.74 L 184.11 319.57 L 191.93 317.67 L 198.01 316.49 L 203.47 315.64 L 216.48 314.02 L 227.54 312.59 L 237.48 310.16 L 246.41 307.64 L 252.59 305.92 L 259.20 304.27 L 264.46 303.00 L 269.16 301.97 L 282.30 299.70 L 296.44 297.45 L 307.99 295.29 L 317.51 293.19 L 323.77 290.58 L 329.62 288.91 L 334.87 287.65 L 340.39 286.54 L 355.20 283.08 L 374.16 276.72 L 389.38 269.84 L 398.91 266.76 L 405.83 265.30 L 419.12 262.80 L 432.92 259.68 L 446.63 255.95 L 457.24 253.28 L 465.96 251.19 L 471.57 250.19 L 477.19 249.38 L 491.55 247.36 L 506.84 244.31 L 520.14 241.13 L 528.37 239.69 L 535.75 238.70 L 542.32 237.72 L 555.72 235.91 L 569.38 233.74 L 582.97 231.26 L 594.00 229.27 L 602.42 227.98 L 607.93 227.38 L 613.51 226.91 L 627.30 225.80 L 641.84 223.61 L 651.38 221.70 L 660.65 220.07 L 668.23 218.80 L 674.19 218.12 L 679.77 217.54 L 693.06 216.22 L 705.31 215.00 L 715.72 213.91 L 724.36 212.42 L 730.74 211.49 L 737.06 210.60 L 742.43 210.28 L 747.93 209.60 L 762.39 208.28 L 777.25 206.59 L 786.29 205.17 L 794.44 203.37 L 800.24 201.61 L 806.24 200.05 L 811.37 199.15 L 816.99 197.99 L 832.57 194.96 L 852.22 189.35 L 867.07 185.22 L 876.34 183.32 L 883.42 182.10 L 897.66 179.75 L 912.98 175.37 L 924.51 172.41 L 934.41 170.33 L 942.71 169.08 L 949.24 168.02 L 962.09 166.34 L 975.60 164.28 L 989.04 161.80 L 1000.56 159.31 L 1009.60 157.54 L 1016.04 156.77 L 1026.87 155.21 L 1040.97 153.27 L 1055.27 151.32 L 1067.08 149.21 L 1076.68 147.70 L 1083.86 146.85 L 1092.44 145.97 L 1108.29 144.50 L 1124.08 142.69 L 1136.58 140.34 L 1145.78 138.98 L 1152.56 138.19 L 1166.00 137.16" fill="none" stroke="#58a6ff" stroke-width="4" stroke-linecap="round" stroke-linejoin="round"/>
<circle cx="1166.00" cy="137.16" r="6" fill="#58a6ff"/>
<circle cx="1166.00" cy="137.16" r="11" fill="none" stroke="#58a6ff" stroke-opacity="0.28" stroke-width="5"/>

<text x="86.00" y="408" text-anchor="start" fill="#8b949e" font-family="Arial, sans-serif" font-size="14">10 Sep 09:36</text><text x="626.00" y="408" text-anchor="middle" fill="#8b949e" font-family="Arial, sans-serif" font-size="14">18 Sep 08:15</text><text x="1166.00" y="408" text-anchor="end" fill="#8b949e" font-family="Arial, sans-serif" font-size="14">26 Sep 06:55</text>
</svg>
