<svg xmlns="http://www.w3.org/2000/svg" width="1200" height="430" viewBox="0 0 1200 430">
<defs>
  <linearGradient id="area" x1="0" x2="0" y1="0" y2="1">
    <stop offset="0%" stop-color="#58a6ff" stop-opacity="0.28"/>
    <stop offset="100%" stop-color="#58a6ff" stop-opacity="0.02"/>
  </linearGradient>
</defs>

<rect width="100%" height="100%" rx="18" fill="#0d1117"/>

<text x="48" y="48" fill="#f0f6fc" font-family="Arial, sans-serif" font-size="27" font-weight="700">Download growth, last 7 days</text>
<text x="48" y="79" fill="#8b949e" font-family="Arial, sans-serif" font-size="16">HakanSeven12/OpenCADStudio cumulative GitHub Release asset downloads</text>

<text x="1152" y="46" text-anchor="end" fill="#f0f6fc" font-family="Arial, sans-serif" font-size="25" font-weight="700">72.5k</text>
<text x="1152" y="76" text-anchor="end" fill="#3fb950" font-family="Arial, sans-serif" font-size="17" font-weight="700">+9.8k growth</text>

<line x1="86" y1="112.00" x2="1166" y2="112.00" stroke="#30363d" stroke-width="1"/><line x1="86" y1="177.00" x2="1166" y2="177.00" stroke="#30363d" stroke-width="1"/><line x1="86" y1="242.00" x2="1166" y2="242.00" stroke="#30363d" stroke-width="1"/><line x1="86" y1="307.00" x2="1166" y2="307.00" stroke="#30363d" stroke-width="1"/><line x1="86" y1="372.00" x2="1166" y2="372.00" stroke="#30363d" stroke-width="1"/>
<text x="72" y="117.00" text-anchor="end" fill="#8b949e" font-family="Arial, sans-serif" font-size="14">73,665</text><text x="72" y="182.00" text-anchor="end" fill="#8b949e" font-family="Arial, sans-serif" font-size="14">70,714</text><text x="72" y="247.00" text-anchor="end" fill="#8b949e" font-family="Arial, sans-serif" font-size="14">67,764</text><text x="72" y="312.00" text-anchor="end" fill="#8b949e" font-family="Arial, sans-serif" font-size="14">64,814</text><text x="72" y="377.00" text-anchor="end" fill="#8b949e" font-family="Arial, sans-serif" font-size="14">61,863</text>

<path d="M 86.00 346.84 L 123.93 339.42 L 158.93 330.67 L 187.55 324.13 L 209.10 321.07 L 247.82 315.03 L 295.78 304.68 L 330.44 295.67 L 357.01 290.36 L 377.12 277.31 L 418.65 271.45 L 460.96 263.48 L 492.45 256.45 L 515.92 252.99 L 534.21 250.70 L 573.18 247.46 L 607.20 243.23 L 634.07 237.15 L 651.36 233.91 L 668.50 231.36 L 690.83 227.59 L 727.70 224.42 L 766.61 219.35 L 795.00 214.46 L 813.16 210.76 L 833.02 205.39 L 851.45 201.05 L 896.94 189.26 L 957.82 194.44 L 995.86 180.51 L 1036.44 172.34 L 1082.96 158.57 L 1119.28 147.58 L 1145.28 141.48 L 1166.00 137.16 L 1166.00 372.00 L 86.00 372.00 Z" fill="url(#area)"/>
<path d="M 86.00 346.84 L 123.93 339.42 L 158.93 330.67 L 187.55 324.13 L 209.10 321.07 L 247.82 315.03 L 295.78 304.68 L 330.44 295.67 L 357.01 290.36 L 377.12 277.31 L 418.65 271.45 L 460.96 263.48 L 492.45 256.45 L 515.92 252.99 L 534.21 250.70 L 573.18 247.46 L 607.20 243.23 L 634.07 237.15 L 651.36 233.91 L 668.50 231.36 L 690.83 227.59 L 727.70 224.42 L 766.61 219.35 L 795.00 214.46 L 813.16 210.76 L 833.02 205.39 L 851.45 201.05 L 896.94 189.26 L 957.82 194.44 L 995.86 180.51 L 1036.44 172.34 L 1082.96 158.57 L 1119.28 147.58 L 1145.28 141.48 L 1166.00 137.16" fill="none" stroke="#58a6ff" stroke-width="4" stroke-linecap="round" stroke-linejoin="round"/>
<circle cx="1166.00" cy="137.16" r="6" fill="#58a6ff"/>
<circle cx="1166.00" cy="137.16" r="11" fill="none" stroke="#58a6ff" stroke-opacity="0.28" stroke-width="5"/>

<text x="86.00" y="408" text-anchor="start" fill="#8b949e" font-family="Arial, sans-serif" font-size="14">30 Sep 07:54</text><text x="626.00" y="408" text-anchor="middle" fill="#8b949e" font-family="Arial, sans-serif" font-size="14">03 Oct 18:00</text><text x="1166.00" y="408" text-anchor="end" fill="#8b949e" font-family="Arial, sans-serif" font-size="14">07 Oct 04:05</text>
</svg>
