<svg xmlns="http://www.w3.org/2000/svg" width="1200" height="430" viewBox="0 0 1200 430">
<defs>
  <linearGradient id="area" x1="0" x2="0" y1="0" y2="1">
    <stop offset="0%" stop-color="#58a6ff" stop-opacity="0.28"/>
    <stop offset="100%" stop-color="#58a6ff" stop-opacity="0.02"/>
  </linearGradient>
</defs>

<rect width="100%" height="100%" rx="18" fill="#0d1117"/>

<text x="48" y="48" fill="#f0f6fc" font-family="Arial, sans-serif" font-size="27" font-weight="700">Download growth, last 7 days</text>
<text x="48" y="79" fill="#8b949e" font-family="Arial, sans-serif" font-size="16">HakanSeven12/OpenCADStudio cumulative GitHub Release asset downloads</text>

<text x="1152" y="46" text-anchor="end" fill="#f0f6fc" font-family="Arial, sans-serif" font-size="25" font-weight="700">68.6k</text>
<text x="1152" y="76" text-anchor="end" fill="#3fb950" font-family="Arial, sans-serif" font-size="17" font-weight="700">+10.7k growth</text>

<line x1="86" y1="112.00" x2="1166" y2="112.00" stroke="#30363d" stroke-width="1"/><line x1="86" y1="177.00" x2="1166" y2="177.00" stroke="#30363d" stroke-width="1"/><line x1="86" y1="242.00" x2="1166" y2="242.00" stroke="#30363d" stroke-width="1"/><line x1="86" y1="307.00" x2="1166" y2="307.00" stroke="#30363d" stroke-width="1"/><line x1="86" y1="372.00" x2="1166" y2="372.00" stroke="#30363d" stroke-width="1"/>
<text x="72" y="117.00" text-anchor="end" fill="#8b949e" font-family="Arial, sans-serif" font-size="14">69,826</text><text x="72" y="182.00" text-anchor="end" fill="#8b949e" font-family="Arial, sans-serif" font-size="14">66,559</text><text x="72" y="247.00" text-anchor="end" fill="#8b949e" font-family="Arial, sans-serif" font-size="14">63,292</text><text x="72" y="312.00" text-anchor="end" fill="#8b949e" font-family="Arial, sans-serif" font-size="14">60,025</text><text x="72" y="377.00" text-anchor="end" fill="#8b949e" font-family="Arial, sans-serif" font-size="14">56,758</text>

<path d="M 86.00 346.85 L 115.87 342.39 L 139.68 336.45 L 159.41 331.29 L 176.32 327.49 L 210.12 321.50 L 257.51 308.69 L 303.04 293.65 L 330.79 288.32 L 367.21 281.39 L 405.26 273.12 L 440.39 263.75 L 468.78 257.64 L 490.02 253.84 L 525.09 247.71 L 562.98 241.01 L 597.93 233.11 L 626.52 227.20 L 648.03 224.43 L 686.71 218.98 L 734.61 209.63 L 769.23 201.49 L 795.76 196.70 L 815.85 184.92 L 857.33 179.63 L 899.59 172.42 L 931.03 166.08 L 954.47 162.95 L 972.75 160.88 L 1011.67 157.96 L 1045.65 154.14 L 1072.48 148.65 L 1089.75 145.72 L 1106.87 143.42 L 1129.18 140.01 L 1166.00 137.15 L 1166.00 372.00 L 86.00 372.00 Z" fill="url(#area)"/>
<path d="M 86.00 346.85 L 115.87 342.39 L 139.68 336.45 L 159.41 331.29 L 176.32 327.49 L 210.12 321.50 L 257.51 308.69 L 303.04 293.65 L 330.79 288.32 L 367.21 281.39 L 405.26 273.12 L 440.39 263.75 L 468.78 257.64 L 490.02 253.84 L 525.09 247.71 L 562.98 241.01 L 597.93 233.11 L 626.52 227.20 L 648.03 224.43 L 686.71 218.98 L 734.61 209.63 L 769.23 201.49 L 795.76 196.70 L 815.85 184.92 L 857.33 179.63 L 899.59 172.42 L 931.03 166.08 L 954.47 162.95 L 972.75 160.88 L 1011.67 157.96 L 1045.65 154.14 L 1072.48 148.65 L 1089.75 145.72 L 1106.87 143.42 L 1129.18 140.01 L 1166.00 137.15" fill="none" stroke="#58a6ff" stroke-width="4" stroke-linecap="round" stroke-linejoin="round"/>
<circle cx="1166.00" cy="137.15" r="6" fill="#58a6ff"/>
<circle cx="1166.00" cy="137.15" r="11" fill="none" stroke="#58a6ff" stroke-opacity="0.28" stroke-width="5"/>

<text x="86.00" y="408" text-anchor="start" fill="#8b949e" font-family="Arial, sans-serif" font-size="14">27 Sep 13:04</text><text x="626.00" y="408" text-anchor="middle" fill="#8b949e" font-family="Arial, sans-serif" font-size="14">30 Sep 23:16</text><text x="1166.00" y="408" text-anchor="end" fill="#8b949e" font-family="Arial, sans-serif" font-size="14">04 Oct 09:28</text>
</svg>
